G04 #@! TF.GenerationSoftware,KiCad,Pcbnew,9.0.1*
G04 #@! TF.CreationDate,2025-06-01T14:07:22-05:00*
G04 #@! TF.ProjectId,NUEVO_NODO,4e554556-4f5f-44e4-9f44-4f2e6b696361,rev?*
G04 #@! TF.SameCoordinates,Original*
G04 #@! TF.FileFunction,Copper,L1,Top*
G04 #@! TF.FilePolarity,Positive*
%FSLAX46Y46*%
G04 Gerber Fmt 4.6, Leading zero omitted, Abs format (unit mm)*
G04 Created by KiCad (PCBNEW 9.0.1) date 2025-06-01 14:07:22*
%MOMM*%
%LPD*%
G01*
G04 APERTURE LIST*
G04 Aperture macros list*
%AMRoundRect*
0 Rectangle with rounded corners*
0 $1 Rounding radius*
0 $2 $3 $4 $5 $6 $7 $8 $9 X,Y pos of 4 corners*
0 Add a 4 corners polygon primitive as box body*
4,1,4,$2,$3,$4,$5,$6,$7,$8,$9,$2,$3,0*
0 Add four circle primitives for the rounded corners*
1,1,$1+$1,$2,$3*
1,1,$1+$1,$4,$5*
1,1,$1+$1,$6,$7*
1,1,$1+$1,$8,$9*
0 Add four rect primitives between the rounded corners*
20,1,$1+$1,$2,$3,$4,$5,0*
20,1,$1+$1,$4,$5,$6,$7,0*
20,1,$1+$1,$6,$7,$8,$9,0*
20,1,$1+$1,$8,$9,$2,$3,0*%
%AMFreePoly0*
4,1,37,0.800000,0.796148,0.878414,0.796148,1.032228,0.765552,1.177117,0.705537,1.307515,0.618408,1.418408,0.507515,1.505537,0.377117,1.565552,0.232228,1.596148,0.078414,1.596148,-0.078414,1.565552,-0.232228,1.505537,-0.377117,1.418408,-0.507515,1.307515,-0.618408,1.177117,-0.705537,1.032228,-0.765552,0.878414,-0.796148,0.800000,-0.796148,0.800000,-0.800000,-1.400000,-0.800000,
-1.403843,-0.796157,-1.439018,-0.796157,-1.511114,-0.766294,-1.566294,-0.711114,-1.596157,-0.639018,-1.596157,-0.603843,-1.600000,-0.600000,-1.600000,0.600000,-1.596157,0.603843,-1.596157,0.639018,-1.566294,0.711114,-1.511114,0.766294,-1.439018,0.796157,-1.403843,0.796157,-1.400000,0.800000,0.800000,0.800000,0.800000,0.796148,0.800000,0.796148,$1*%
%AMFreePoly1*
4,1,37,1.403843,0.796157,1.439018,0.796157,1.511114,0.766294,1.566294,0.711114,1.596157,0.639018,1.596157,0.603843,1.600000,0.600000,1.600000,-0.600000,1.596157,-0.603843,1.596157,-0.639018,1.566294,-0.711114,1.511114,-0.766294,1.439018,-0.796157,1.403843,-0.796157,1.400000,-0.800000,-0.800000,-0.800000,-0.800000,-0.796148,-0.878414,-0.796148,-1.032228,-0.765552,-1.177117,-0.705537,
-1.307515,-0.618408,-1.418408,-0.507515,-1.505537,-0.377117,-1.565552,-0.232228,-1.596148,-0.078414,-1.596148,0.078414,-1.565552,0.232228,-1.505537,0.377117,-1.418408,0.507515,-1.307515,0.618408,-1.177117,0.705537,-1.032228,0.765552,-0.878414,0.796148,-0.800000,0.796148,-0.800000,0.800000,1.400000,0.800000,1.403843,0.796157,1.403843,0.796157,$1*%
G04 Aperture macros list end*
G04 #@! TA.AperFunction,ComponentPad*
%ADD10FreePoly0,0.000000*%
G04 #@! TD*
G04 #@! TA.AperFunction,ComponentPad*
%ADD11RoundRect,0.800000X-0.800000X-0.000010X0.800000X-0.000010X0.800000X0.000010X-0.800000X0.000010X0*%
G04 #@! TD*
G04 #@! TA.AperFunction,ComponentPad*
%ADD12FreePoly1,0.000000*%
G04 #@! TD*
G04 #@! TA.AperFunction,ComponentPad*
%ADD13RoundRect,0.200000X-0.600000X-0.600000X0.600000X-0.600000X0.600000X0.600000X-0.600000X0.600000X0*%
G04 #@! TD*
G04 #@! TA.AperFunction,ComponentPad*
%ADD14C,1.600000*%
G04 #@! TD*
G04 #@! TA.AperFunction,ComponentPad*
%ADD15R,1.700000X1.700000*%
G04 #@! TD*
G04 #@! TA.AperFunction,ComponentPad*
%ADD16C,1.700000*%
G04 #@! TD*
G04 #@! TA.AperFunction,ComponentPad*
%ADD17RoundRect,0.190500X-0.762000X-0.444500X0.762000X-0.444500X0.762000X0.444500X-0.762000X0.444500X0*%
G04 #@! TD*
G04 #@! TA.AperFunction,ViaPad*
%ADD18C,1.200000*%
G04 #@! TD*
G04 #@! TA.AperFunction,Conductor*
%ADD19C,0.200000*%
G04 #@! TD*
G04 #@! TA.AperFunction,Conductor*
%ADD20C,1.000000*%
G04 #@! TD*
G04 #@! TA.AperFunction,Conductor*
%ADD21C,0.650000*%
G04 #@! TD*
G04 #@! TA.AperFunction,Conductor*
%ADD22C,1.300000*%
G04 #@! TD*
G04 APERTURE END LIST*
D10*
X92500000Y-87420000D03*
D11*
X92500000Y-89960000D03*
D12*
X92500000Y-92500000D03*
D11*
X92500000Y-95040000D03*
X92500000Y-97580000D03*
X92500000Y-100120000D03*
X92500000Y-102660000D03*
X92500000Y-105200000D03*
X92500000Y-107740000D03*
X92500000Y-110280000D03*
X92500000Y-112820000D03*
X92500000Y-115360000D03*
X92500000Y-117900000D03*
X92500000Y-120440000D03*
X92500000Y-122980000D03*
X92500000Y-125520000D03*
X92500000Y-128060000D03*
X92500000Y-130600000D03*
X92500000Y-133140000D03*
X92500000Y-135680000D03*
X111880000Y-135680000D03*
X111880000Y-133140000D03*
X111880000Y-130600000D03*
X111880000Y-128060000D03*
X111880000Y-125520000D03*
X111880000Y-122980000D03*
X111880000Y-120440000D03*
X111880000Y-117900000D03*
X111880000Y-115360000D03*
X111880000Y-112820000D03*
X111880000Y-110280000D03*
X111880000Y-107740000D03*
X111880000Y-105200000D03*
X111880000Y-102660000D03*
X111880000Y-100120000D03*
X111880000Y-97580000D03*
X111880000Y-95040000D03*
X111880000Y-92500000D03*
X111880000Y-89960000D03*
X111880000Y-87420000D03*
D13*
X102774100Y-117250000D03*
D14*
X105314100Y-117250000D03*
X107854100Y-117250000D03*
D15*
X76925000Y-108330500D03*
D16*
X76925000Y-110870500D03*
X74385000Y-108330500D03*
X74385000Y-110870500D03*
X71845000Y-108330500D03*
X71845000Y-110870500D03*
X69305000Y-108330500D03*
X69305000Y-110870500D03*
D17*
X118800000Y-64620000D03*
X120800000Y-64620000D03*
X120800000Y-78120000D03*
X159800000Y-64620000D03*
X159800000Y-77620000D03*
X118800000Y-78120000D03*
X157800000Y-64620000D03*
X157800000Y-77620000D03*
D16*
X126800000Y-107620000D03*
X126800000Y-104620000D03*
X126800000Y-101620000D03*
X126800000Y-98620000D03*
D18*
X119000000Y-101320000D03*
X115800000Y-112620000D03*
X86800000Y-101620000D03*
X89500000Y-106500000D03*
X66500000Y-99500000D03*
X84300000Y-95040000D03*
D19*
X175833880Y-124166120D02*
X175813880Y-124146120D01*
D20*
X87000000Y-98255500D02*
X76925000Y-108330500D01*
X87000000Y-97500000D02*
X87000000Y-98255500D01*
D21*
X92500000Y-92755500D02*
X92500000Y-92500000D01*
D20*
X90481504Y-92500000D02*
X92500000Y-92500000D01*
X87000000Y-97500000D02*
X87000000Y-95981504D01*
X87000000Y-95981504D02*
X90481504Y-92500000D01*
D19*
X92500000Y-107740000D02*
X92260000Y-107500000D01*
D20*
X118900000Y-78020000D02*
X118900000Y-82940000D01*
X118900000Y-82940000D02*
X111880000Y-89960000D01*
X119000000Y-101320000D02*
X119000000Y-101500000D01*
X124180000Y-102000000D02*
X126800000Y-104620000D01*
X119500000Y-102000000D02*
X124180000Y-102000000D01*
X105361000Y-104099000D02*
X111880000Y-97580000D01*
X119000000Y-101500000D02*
X119500000Y-102000000D01*
X83696500Y-104099000D02*
X105361000Y-104099000D01*
X76925000Y-110870500D02*
X83696500Y-104099000D01*
X86800000Y-130120000D02*
X87300000Y-130620000D01*
X113041000Y-126959000D02*
X116000000Y-124000000D01*
D19*
X116000000Y-112820000D02*
X115800000Y-112620000D01*
D20*
X116000000Y-124000000D02*
X116000000Y-112820000D01*
D21*
X86961000Y-126959000D02*
X86800000Y-127120000D01*
D20*
X86961000Y-126959000D02*
X113041000Y-126959000D01*
X87300000Y-132120000D02*
X90860000Y-135680000D01*
D21*
X90860000Y-135680000D02*
X92500000Y-135680000D01*
D20*
X87300000Y-130620000D02*
X87300000Y-132120000D01*
X86800000Y-127120000D02*
X86800000Y-130120000D01*
X86800000Y-101620000D02*
X90840000Y-97580000D01*
X90840000Y-97580000D02*
X92500000Y-97580000D01*
D22*
X113094000Y-103986000D02*
X111880000Y-105200000D01*
D20*
X120800000Y-78120000D02*
X120800000Y-86120000D01*
D19*
X113229248Y-103986000D02*
X113094000Y-103986000D01*
D20*
X126800000Y-107620000D02*
X124380000Y-105200000D01*
X118300000Y-88620000D02*
X118300000Y-98915248D01*
X120800000Y-86120000D02*
X118300000Y-88620000D01*
X118300000Y-98915248D02*
X113229248Y-103986000D01*
X124380000Y-105200000D02*
X111880000Y-105200000D01*
X78420000Y-115000000D02*
X74500000Y-115000000D01*
D22*
X74500000Y-115000000D02*
X74385000Y-114885000D01*
D20*
X74385000Y-114885000D02*
X74385000Y-110870500D01*
X86920000Y-106500000D02*
X78420000Y-115000000D01*
X89500000Y-106500000D02*
X86920000Y-106500000D01*
X66500000Y-99500000D02*
X66500000Y-105525500D01*
X66500000Y-105525500D02*
X69305000Y-108330500D01*
X84300000Y-95875500D02*
X71845000Y-108330500D01*
X84300000Y-95040000D02*
X84300000Y-95875500D01*
D21*
X69305000Y-110870500D02*
X68705000Y-110870500D01*
M02*
