G04 #@! TF.GenerationSoftware,KiCad,Pcbnew,9.0.1*
G04 #@! TF.CreationDate,2025-06-01T14:07:22-05:00*
G04 #@! TF.ProjectId,NUEVO_NODO,4e554556-4f5f-44e4-9f44-4f2e6b696361,rev?*
G04 #@! TF.SameCoordinates,Original*
G04 #@! TF.FileFunction,Soldermask,Top*
G04 #@! TF.FilePolarity,Negative*
%FSLAX46Y46*%
G04 Gerber Fmt 4.6, Leading zero omitted, Abs format (unit mm)*
G04 Created by KiCad (PCBNEW 9.0.1) date 2025-06-01 14:07:22*
%MOMM*%
%LPD*%
G01*
G04 APERTURE LIST*
G04 Aperture macros list*
%AMRoundRect*
0 Rectangle with rounded corners*
0 $1 Rounding radius*
0 $2 $3 $4 $5 $6 $7 $8 $9 X,Y pos of 4 corners*
0 Add a 4 corners polygon primitive as box body*
4,1,4,$2,$3,$4,$5,$6,$7,$8,$9,$2,$3,0*
0 Add four circle primitives for the rounded corners*
1,1,$1+$1,$2,$3*
1,1,$1+$1,$4,$5*
1,1,$1+$1,$6,$7*
1,1,$1+$1,$8,$9*
0 Add four rect primitives between the rounded corners*
20,1,$1+$1,$2,$3,$4,$5,0*
20,1,$1+$1,$4,$5,$6,$7,0*
20,1,$1+$1,$6,$7,$8,$9,0*
20,1,$1+$1,$8,$9,$2,$3,0*%
%AMFreePoly0*
4,1,37,0.800000,0.796148,0.878414,0.796148,1.032228,0.765552,1.177117,0.705537,1.307515,0.618408,1.418408,0.507515,1.505537,0.377117,1.565552,0.232228,1.596148,0.078414,1.596148,-0.078414,1.565552,-0.232228,1.505537,-0.377117,1.418408,-0.507515,1.307515,-0.618408,1.177117,-0.705537,1.032228,-0.765552,0.878414,-0.796148,0.800000,-0.796148,0.800000,-0.800000,-1.400000,-0.800000,
-1.403843,-0.796157,-1.439018,-0.796157,-1.511114,-0.766294,-1.566294,-0.711114,-1.596157,-0.639018,-1.596157,-0.603843,-1.600000,-0.600000,-1.600000,0.600000,-1.596157,0.603843,-1.596157,0.639018,-1.566294,0.711114,-1.511114,0.766294,-1.439018,0.796157,-1.403843,0.796157,-1.400000,0.800000,0.800000,0.800000,0.800000,0.796148,0.800000,0.796148,$1*%
%AMFreePoly1*
4,1,37,1.403843,0.796157,1.439018,0.796157,1.511114,0.766294,1.566294,0.711114,1.596157,0.639018,1.596157,0.603843,1.600000,0.600000,1.600000,-0.600000,1.596157,-0.603843,1.596157,-0.639018,1.566294,-0.711114,1.511114,-0.766294,1.439018,-0.796157,1.403843,-0.796157,1.400000,-0.800000,-0.800000,-0.800000,-0.800000,-0.796148,-0.878414,-0.796148,-1.032228,-0.765552,-1.177117,-0.705537,
-1.307515,-0.618408,-1.418408,-0.507515,-1.505537,-0.377117,-1.565552,-0.232228,-1.596148,-0.078414,-1.596148,0.078414,-1.565552,0.232228,-1.505537,0.377117,-1.418408,0.507515,-1.307515,0.618408,-1.177117,0.705537,-1.032228,0.765552,-0.878414,0.796148,-0.800000,0.796148,-0.800000,0.800000,1.400000,0.800000,1.403843,0.796157,1.403843,0.796157,$1*%
G04 Aperture macros list end*
%ADD10C,2.200000*%
%ADD11C,1.850000*%
%ADD12FreePoly0,0.000000*%
%ADD13RoundRect,0.800000X-0.800000X-0.000010X0.800000X-0.000010X0.800000X0.000010X-0.800000X0.000010X0*%
%ADD14FreePoly1,0.000000*%
%ADD15RoundRect,0.200000X-0.600000X-0.600000X0.600000X-0.600000X0.600000X0.600000X-0.600000X0.600000X0*%
%ADD16C,1.600000*%
%ADD17R,1.700000X1.700000*%
%ADD18C,1.700000*%
%ADD19RoundRect,0.190500X-0.762000X-0.444500X0.762000X-0.444500X0.762000X0.444500X-0.762000X0.444500X0*%
G04 APERTURE END LIST*
D10*
X99465000Y-87550000D03*
D11*
X99765000Y-90580000D03*
X104615000Y-90580000D03*
D10*
X104915000Y-87550000D03*
D12*
X92500000Y-87420000D03*
D13*
X92500000Y-89960000D03*
D14*
X92500000Y-92500000D03*
D13*
X92500000Y-95040000D03*
X92500000Y-97580000D03*
X92500000Y-100120000D03*
X92500000Y-102660000D03*
X92500000Y-105200000D03*
X92500000Y-107740000D03*
X92500000Y-110280000D03*
X92500000Y-112820000D03*
X92500000Y-115360000D03*
X92500000Y-117900000D03*
X92500000Y-120440000D03*
X92500000Y-122980000D03*
X92500000Y-125520000D03*
X92500000Y-128060000D03*
X92500000Y-130600000D03*
X92500000Y-133140000D03*
X92500000Y-135680000D03*
X111880000Y-135680000D03*
X111880000Y-133140000D03*
X111880000Y-130600000D03*
X111880000Y-128060000D03*
X111880000Y-125520000D03*
X111880000Y-122980000D03*
X111880000Y-120440000D03*
X111880000Y-117900000D03*
X111880000Y-115360000D03*
X111880000Y-112820000D03*
X111880000Y-110280000D03*
X111880000Y-107740000D03*
X111880000Y-105200000D03*
X111880000Y-102660000D03*
X111880000Y-100120000D03*
X111880000Y-97580000D03*
X111880000Y-95040000D03*
X111880000Y-92500000D03*
X111880000Y-89960000D03*
X111880000Y-87420000D03*
D15*
X102774100Y-117250000D03*
D16*
X105314100Y-117250000D03*
X107854100Y-117250000D03*
D17*
X76925000Y-108330500D03*
D18*
X76925000Y-110870500D03*
X74385000Y-108330500D03*
X74385000Y-110870500D03*
X71845000Y-108330500D03*
X71845000Y-110870500D03*
X69305000Y-108330500D03*
X69305000Y-110870500D03*
D19*
X118800000Y-64620000D03*
X120800000Y-64620000D03*
X120800000Y-78120000D03*
X159800000Y-64620000D03*
X159800000Y-77620000D03*
X118800000Y-78120000D03*
X157800000Y-64620000D03*
X157800000Y-77620000D03*
D18*
X126800000Y-107620000D03*
X126800000Y-104620000D03*
X126800000Y-101620000D03*
X126800000Y-98620000D03*
M02*
