M48
; DRILL file {KiCad 9.0.1} date 2025-06-01T14:11:16-0500
; FORMAT={-:-/ absolute / metric / decimal}
; #@! TF.CreationDate,2025-06-01T14:11:16-05:00
; #@! TF.GenerationSoftware,Kicad,Pcbnew,9.0.1
; #@! TF.FileFunction,Plated,1,2,PTH
FMAT,2
METRIC
; #@! TA.AperFunction,Plated,PTH,ViaDrill
T1C0.300
; #@! TA.AperFunction,Plated,PTH,ComponentDrill
T2C1.000
%
G90
G05
T1
X66.5Y-99.5
X84.3Y-95.04
X86.8Y-101.62
X89.5Y-106.5
X115.8Y-112.62
X119.0Y-101.32
T2
X69.305Y-108.331
X69.305Y-110.87
X71.845Y-108.331
X71.845Y-110.87
X74.385Y-108.331
X74.385Y-110.87
X76.925Y-108.331
X76.925Y-110.87
X92.5Y-87.42
X92.5Y-89.96
X92.5Y-92.5
X92.5Y-95.04
X92.5Y-97.58
X92.5Y-100.12
X92.5Y-102.66
X92.5Y-105.2
X92.5Y-107.74
X92.5Y-110.28
X92.5Y-112.82
X92.5Y-115.36
X92.5Y-117.9
X92.5Y-120.44
X92.5Y-122.98
X92.5Y-125.52
X92.5Y-128.06
X92.5Y-130.6
X92.5Y-133.14
X92.5Y-135.68
X102.774Y-117.25
X105.314Y-117.25
X107.854Y-117.25
X111.88Y-87.42
X111.88Y-89.96
X111.88Y-92.5
X111.88Y-95.04
X111.88Y-97.58
X111.88Y-100.12
X111.88Y-102.66
X111.88Y-105.2
X111.88Y-107.74
X111.88Y-110.28
X111.88Y-112.82
X111.88Y-115.36
X111.88Y-117.9
X111.88Y-120.44
X111.88Y-122.98
X111.88Y-125.52
X111.88Y-128.06
X111.88Y-130.6
X111.88Y-133.14
X111.88Y-135.68
X118.8Y-64.62
X118.8Y-78.12
X120.8Y-64.62
X120.8Y-78.12
X126.8Y-98.62
X126.8Y-101.62
X126.8Y-104.62
X126.8Y-107.62
X157.8Y-64.62
X157.8Y-77.62
X159.8Y-64.62
X159.8Y-77.62
M30
