G04 #@! TF.GenerationSoftware,KiCad,Pcbnew,9.0.1*
G04 #@! TF.CreationDate,2025-06-01T14:07:22-05:00*
G04 #@! TF.ProjectId,NUEVO_NODO,4e554556-4f5f-44e4-9f44-4f2e6b696361,rev?*
G04 #@! TF.SameCoordinates,Original*
G04 #@! TF.FileFunction,Legend,Top*
G04 #@! TF.FilePolarity,Positive*
%FSLAX46Y46*%
G04 Gerber Fmt 4.6, Leading zero omitted, Abs format (unit mm)*
G04 Created by KiCad (PCBNEW 9.0.1) date 2025-06-01 14:07:22*
%MOMM*%
%LPD*%
G01*
G04 APERTURE LIST*
%ADD10C,0.150000*%
%ADD11C,0.100000*%
%ADD12C,0.120000*%
G04 APERTURE END LIST*
D10*
X114226660Y-136484104D02*
X114702850Y-136484104D01*
X114131422Y-136769819D02*
X114464755Y-135769819D01*
X114464755Y-135769819D02*
X114798088Y-136769819D01*
X115655231Y-136769819D02*
X115083803Y-136769819D01*
X115369517Y-136769819D02*
X115369517Y-135769819D01*
X115369517Y-135769819D02*
X115274279Y-135912676D01*
X115274279Y-135912676D02*
X115179041Y-136007914D01*
X115179041Y-136007914D02*
X115083803Y-136055533D01*
X74649819Y-117271904D02*
X75459342Y-117271904D01*
X75459342Y-117271904D02*
X75554580Y-117224285D01*
X75554580Y-117224285D02*
X75602200Y-117176666D01*
X75602200Y-117176666D02*
X75649819Y-117081428D01*
X75649819Y-117081428D02*
X75649819Y-116890952D01*
X75649819Y-116890952D02*
X75602200Y-116795714D01*
X75602200Y-116795714D02*
X75554580Y-116748095D01*
X75554580Y-116748095D02*
X75459342Y-116700476D01*
X75459342Y-116700476D02*
X74649819Y-116700476D01*
X75649819Y-115700476D02*
X75649819Y-116271904D01*
X75649819Y-115986190D02*
X74649819Y-115986190D01*
X74649819Y-115986190D02*
X74792676Y-116081428D01*
X74792676Y-116081428D02*
X74887914Y-116176666D01*
X74887914Y-116176666D02*
X74935533Y-116271904D01*
D11*
X140538095Y-61577419D02*
X140538095Y-62386942D01*
X140538095Y-62386942D02*
X140585714Y-62482180D01*
X140585714Y-62482180D02*
X140633333Y-62529800D01*
X140633333Y-62529800D02*
X140728571Y-62577419D01*
X140728571Y-62577419D02*
X140919047Y-62577419D01*
X140919047Y-62577419D02*
X141014285Y-62529800D01*
X141014285Y-62529800D02*
X141061904Y-62482180D01*
X141061904Y-62482180D02*
X141109523Y-62386942D01*
X141109523Y-62386942D02*
X141109523Y-61577419D01*
X141490476Y-61577419D02*
X142109523Y-61577419D01*
X142109523Y-61577419D02*
X141776190Y-61958371D01*
X141776190Y-61958371D02*
X141919047Y-61958371D01*
X141919047Y-61958371D02*
X142014285Y-62005990D01*
X142014285Y-62005990D02*
X142061904Y-62053609D01*
X142061904Y-62053609D02*
X142109523Y-62148847D01*
X142109523Y-62148847D02*
X142109523Y-62386942D01*
X142109523Y-62386942D02*
X142061904Y-62482180D01*
X142061904Y-62482180D02*
X142014285Y-62529800D01*
X142014285Y-62529800D02*
X141919047Y-62577419D01*
X141919047Y-62577419D02*
X141633333Y-62577419D01*
X141633333Y-62577419D02*
X141538095Y-62529800D01*
X141538095Y-62529800D02*
X141490476Y-62482180D01*
D12*
X91580000Y-88480000D02*
X91100000Y-88480000D01*
X91580000Y-88480000D02*
X91580000Y-88900000D01*
X91580000Y-91020000D02*
X91580000Y-91440000D01*
X91580000Y-93560000D02*
X91580000Y-93980000D01*
X91580000Y-96100000D02*
X91580000Y-96520000D01*
X91580000Y-98640000D02*
X91580000Y-99060000D01*
X91580000Y-101180000D02*
X91580000Y-101600000D01*
X91580000Y-103720000D02*
X91580000Y-104140000D01*
X91580000Y-106260000D02*
X91580000Y-106680000D01*
X91580000Y-108800000D02*
X91580000Y-109220000D01*
X91580000Y-111340000D02*
X91580000Y-111760000D01*
X91580000Y-113880000D02*
X91580000Y-114300000D01*
X91580000Y-116420000D02*
X91580000Y-116840000D01*
X91580000Y-118960000D02*
X91580000Y-119380000D01*
X91580000Y-121500000D02*
X91580000Y-121920000D01*
X91580000Y-124040000D02*
X91580000Y-124460000D01*
X91580000Y-126580000D02*
X91580000Y-127000000D01*
X91580000Y-129120000D02*
X91580000Y-129540000D01*
X91580000Y-131660000D02*
X91580000Y-132080000D01*
X91580000Y-134200000D02*
X91580000Y-134620000D01*
X91610324Y-86360000D02*
X91100000Y-86360000D01*
X92190000Y-85940000D02*
X94680000Y-85940000D01*
X94680000Y-85940000D02*
X96027940Y-85940000D01*
X96952061Y-85940000D02*
X97955000Y-85940000D01*
X97955000Y-85940000D02*
X106425000Y-85940000D01*
X98290000Y-85940000D02*
X98290000Y-86856000D01*
X98290000Y-89244000D02*
X98290000Y-90460000D01*
X98290000Y-90460000D02*
X98586090Y-90460000D01*
X100943910Y-90460000D02*
X103436090Y-90460000D01*
X105793910Y-90460000D02*
X106090000Y-90460000D01*
X106090000Y-85940000D02*
X106090000Y-86856000D01*
X106090000Y-89244000D02*
X106090000Y-90460000D01*
X106425000Y-85940000D02*
X107427939Y-85940000D01*
X108352061Y-85940000D02*
X109700000Y-85940000D01*
X112190000Y-85940000D02*
X109700000Y-85940000D01*
X112800000Y-88480000D02*
X112800000Y-88900000D01*
X112800000Y-91020000D02*
X112800000Y-91440000D01*
X112800000Y-93560000D02*
X112800000Y-93980000D01*
X112800000Y-96100000D02*
X112800000Y-96520000D01*
X112800000Y-98640000D02*
X112800000Y-99060000D01*
X112800000Y-101180000D02*
X112800000Y-101600000D01*
X112800000Y-103720000D02*
X112800000Y-104140000D01*
X112800000Y-106260000D02*
X112800000Y-106680000D01*
X112800000Y-108800000D02*
X112800000Y-109220000D01*
X112800000Y-111340000D02*
X112800000Y-111760000D01*
X112800000Y-113880000D02*
X112800000Y-114300000D01*
X112800000Y-116420000D02*
X112800000Y-116840000D01*
X112800000Y-118960000D02*
X112800000Y-119380000D01*
X112800000Y-121500000D02*
X112800000Y-121920000D01*
X112800000Y-124040000D02*
X112800000Y-124460000D01*
X112800000Y-126580000D02*
X112800000Y-127000000D01*
X112800000Y-129120000D02*
X112800000Y-129540000D01*
X112800000Y-131660000D02*
X112800000Y-132080000D01*
X112800000Y-134200000D02*
X112800000Y-134620000D01*
X91610324Y-86360000D02*
G75*
G02*
X92190000Y-85940000I579692J-190051D01*
G01*
X91826682Y-137040000D02*
G75*
G02*
X91610324Y-136739937I363328J490008D01*
G01*
X112190000Y-85940000D02*
G75*
G02*
X112769676Y-86360063I0J-610000D01*
G01*
X112769676Y-136739937D02*
G75*
G02*
X112553335Y-137040022I-579476J189737D01*
G01*
X63575000Y-106730500D02*
X79025000Y-106730500D01*
X63575000Y-135930500D02*
X63575000Y-106730500D01*
X67781000Y-107060500D02*
X67781000Y-107060500D01*
X67781000Y-107060500D02*
X78449000Y-107060500D01*
X67781000Y-112394500D02*
X67781000Y-107060500D01*
X78449000Y-107060500D02*
X78449000Y-107060500D01*
X78449000Y-107060500D02*
X78449000Y-112394500D01*
X78449000Y-112394500D02*
X67781000Y-112394500D01*
X79025000Y-106730500D02*
X79025000Y-106730500D01*
X79025000Y-106730500D02*
X79025000Y-135930500D01*
X79025000Y-135930500D02*
X63575000Y-135930500D01*
X76925000Y-106530500D02*
X76685000Y-106194500D01*
X77165000Y-106194500D01*
X76925000Y-106530500D01*
G36*
X76925000Y-106530500D02*
G01*
X76685000Y-106194500D01*
X77165000Y-106194500D01*
X76925000Y-106530500D01*
G37*
D11*
X111800000Y-46620000D02*
X111800000Y-81620000D01*
X131800000Y-76620000D02*
X146800000Y-76620000D01*
X131800000Y-81620000D02*
X111800000Y-81620000D01*
X131800000Y-81620000D02*
X131800000Y-76620000D01*
X146800000Y-76620000D02*
X146800000Y-81620000D01*
X146800000Y-81620000D02*
X166800000Y-81620000D01*
X166800000Y-46620000D02*
X111800000Y-46620000D01*
X166800000Y-81620000D02*
X166800000Y-46620000D01*
X124300000Y-91620000D02*
X150300000Y-91620000D01*
X124300000Y-115620000D02*
X124300000Y-91620000D01*
X124300000Y-115620000D02*
X150300000Y-115620000D01*
X129300000Y-115620000D02*
X129300000Y-91620000D01*
X143800000Y-115620000D02*
X143800000Y-91620000D01*
X145300000Y-96620000D02*
X145300000Y-110620000D01*
X150300000Y-91620000D02*
X150300000Y-96620000D01*
X150300000Y-96620000D02*
X145300000Y-96620000D01*
X150300000Y-110620000D02*
X145300000Y-110620000D01*
X150300000Y-115620000D02*
X150300000Y-110620000D01*
X128800000Y-94120000D02*
G75*
G02*
X124800000Y-94120000I-2000000J0D01*
G01*
X124800000Y-94120000D02*
G75*
G02*
X128800000Y-94120000I2000000J0D01*
G01*
X128800000Y-113120000D02*
G75*
G02*
X124800000Y-113120000I-2000000J0D01*
G01*
X124800000Y-113120000D02*
G75*
G02*
X128800000Y-113120000I2000000J0D01*
G01*
X149300000Y-94120000D02*
G75*
G02*
X145300000Y-94120000I-2000000J0D01*
G01*
X145300000Y-94120000D02*
G75*
G02*
X149300000Y-94120000I2000000J0D01*
G01*
X149300000Y-113120000D02*
G75*
G02*
X145300000Y-113120000I-2000000J0D01*
G01*
X145300000Y-113120000D02*
G75*
G02*
X149300000Y-113120000I2000000J0D01*
G01*
M02*
